<svg viewBox="0 0 25 24" fill="none" xmlns="http://www.w3.org/2000/svg">
<path d="M19.6558 22.5H9.31429C8.4327 22.5 7.58721 22.1444 6.96383 21.5115C6.34045 20.8785 5.99023 20.0201 5.99023 19.125V8.625C5.99023 7.72989 6.34045 6.87145 6.96383 6.23851C7.58721 5.60558 8.4327 5.25 9.31429 5.25H19.6558C20.5374 5.25 21.3829 5.60558 22.0063 6.23851C22.6296 6.87145 22.9799 7.72989 22.9799 8.625V19.125C22.9799 20.0201 22.6296 20.8785 22.0063 21.5115C21.3829 22.1444 20.5374 22.5 19.6558 22.5Z" fill="#563EEA"/>
<path d="M8.20631 3.75H19.0963C18.8665 3.09246 18.4419 2.52322 17.8808 2.12038C17.3197 1.71755 16.6496 1.50084 15.9624 1.5H5.62093C4.73934 1.5 3.89385 1.85558 3.27047 2.48851C2.64709 3.12145 2.29688 3.97989 2.29688 4.875V15.375C2.2977 16.0727 2.51114 16.7531 2.90789 17.3228C3.30465 17.8924 3.8653 18.3235 4.51291 18.5569V7.5C4.51291 6.50544 4.90204 5.55161 5.59468 4.84835C6.28733 4.14509 7.22676 3.75 8.20631 3.75Z" fill="#563EEA"/>
</svg>
