<svg viewBox="0 0 24 24" fill="none" xmlns="http://www.w3.org/2000/svg">
<path d="M18.7266 15.6582H15.7891C15.5863 15.6582 15.4219 15.8251 15.4219 16.031V19.0135C15.4219 19.2194 15.5863 19.3864 15.7891 19.3864H18.7266C18.9294 19.3864 19.0938 19.2194 19.0938 19.0135V16.031C19.0938 15.8251 18.9294 15.6582 18.7266 15.6582Z" fill="#563EEA"/>
<path d="M15.0547 12.6758H12.8516C12.6488 12.6758 12.4844 12.8427 12.4844 13.0486V15.2855C12.4844 15.4914 12.6488 15.6583 12.8516 15.6583H15.0547C15.2575 15.6583 15.4219 15.4914 15.4219 15.2855V13.0486C15.4219 12.8427 15.2575 12.6758 15.0547 12.6758Z" fill="#563EEA"/>
<path d="M21.6641 19.3862H19.4609C19.2581 19.3862 19.0938 19.5531 19.0938 19.759V21.9959C19.0938 22.2018 19.2581 22.3687 19.4609 22.3687H21.6641C21.8669 22.3687 22.0312 22.2018 22.0312 21.9959V19.759C22.0312 19.5531 21.8669 19.3862 21.6641 19.3862Z" fill="#563EEA"/>
<path d="M21.6641 12.6758H20.1953C19.9925 12.6758 19.8281 12.8427 19.8281 13.0486V14.5399C19.8281 14.7458 19.9925 14.9127 20.1953 14.9127H21.6641C21.8669 14.9127 22.0312 14.7458 22.0312 14.5399V13.0486C22.0312 12.8427 21.8669 12.6758 21.6641 12.6758Z" fill="#563EEA"/>
<path d="M14.3203 20.1318H12.8516C12.6488 20.1318 12.4844 20.2988 12.4844 20.5047V21.9959C12.4844 22.2018 12.6488 22.3687 12.8516 22.3687H14.3203C14.5231 22.3687 14.6875 22.2018 14.6875 21.9959V20.5047C14.6875 20.2988 14.5231 20.1318 14.3203 20.1318Z" fill="#563EEA"/>
<path d="M20.5625 1.49121H13.9531C13.5636 1.49121 13.19 1.64833 12.9146 1.92799C12.6391 2.20766 12.4844 2.58696 12.4844 2.98247V9.69314C12.4844 10.0886 12.6391 10.468 12.9146 10.7476C13.19 11.0273 13.5636 11.1844 13.9531 11.1844H20.5625C20.952 11.1844 21.3256 11.0273 21.6011 10.7476C21.8765 10.468 22.0312 10.0886 22.0312 9.69314V2.98247C22.0312 2.58696 21.8765 2.20766 21.6011 1.92799C21.3256 1.64833 20.952 1.49121 20.5625 1.49121ZM19.0938 7.82906C19.0938 7.92794 19.0551 8.02277 18.9862 8.09268C18.9173 8.1626 18.8239 8.20188 18.7266 8.20188H15.7891C15.6917 8.20188 15.5983 8.1626 15.5294 8.09268C15.4606 8.02277 15.4219 7.92794 15.4219 7.82906V4.84654C15.4219 4.74767 15.4606 4.65284 15.5294 4.58293C15.5983 4.51301 15.6917 4.47373 15.7891 4.47373H18.7266C18.8239 4.47373 18.9173 4.51301 18.9862 4.58293C19.0551 4.65284 19.0938 4.74767 19.0938 4.84654V7.82906ZM9.54688 1.49121H2.9375C2.54796 1.49121 2.17438 1.64833 1.89894 1.92799C1.62349 2.20766 1.46875 2.58696 1.46875 2.98247V9.69314C1.46875 10.0886 1.62349 10.468 1.89894 10.7476C2.17438 11.0273 2.54796 11.1844 2.9375 11.1844H9.54688C9.93641 11.1844 10.31 11.0273 10.5854 10.7476C10.8609 10.468 11.0156 10.0886 11.0156 9.69314V2.98247C11.0156 2.58696 10.8609 2.20766 10.5854 1.92799C10.31 1.64833 9.93641 1.49121 9.54688 1.49121ZM8.07812 7.82906C8.07812 7.92794 8.03944 8.02277 7.97058 8.09268C7.90172 8.1626 7.80832 8.20188 7.71094 8.20188H4.77344C4.67605 8.20188 4.58266 8.1626 4.5138 8.09268C4.44494 8.02277 4.40625 7.92794 4.40625 7.82906V4.84654C4.40625 4.74767 4.44494 4.65284 4.5138 4.58293C4.58266 4.51301 4.67605 4.47373 4.77344 4.47373H7.71094C7.80832 4.47373 7.90172 4.51301 7.97058 4.58293C8.03944 4.65284 8.07812 4.74767 8.07812 4.84654V7.82906ZM9.54688 12.6757H2.9375C2.54796 12.6757 2.17438 12.8328 1.89894 13.1124C1.62349 13.3921 1.46875 13.7714 1.46875 14.1669V20.8776C1.46875 21.2731 1.62349 21.6524 1.89894 21.9321C2.17438 22.2117 2.54796 22.3688 2.9375 22.3688H9.54688C9.93641 22.3688 10.31 22.2117 10.5854 21.9321C10.8609 21.6524 11.0156 21.2731 11.0156 20.8776V14.1669C11.0156 13.7714 10.8609 13.3921 10.5854 13.1124C10.31 12.8328 9.93641 12.6757 9.54688 12.6757ZM8.07812 19.0135C8.07812 19.1124 8.03944 19.2072 7.97058 19.2771C7.90172 19.347 7.80832 19.3863 7.71094 19.3863H4.77344C4.67605 19.3863 4.58266 19.347 4.5138 19.2771C4.44494 19.2072 4.40625 19.1124 4.40625 19.0135V16.031C4.40625 15.9321 4.44494 15.8373 4.5138 15.7674C4.58266 15.6975 4.67605 15.6582 4.77344 15.6582H7.71094C7.80832 15.6582 7.90172 15.6975 7.97058 15.7674C8.03944 15.8373 8.07812 15.9321 8.07812 16.031V19.0135Z" fill="#563EEA"/>
</svg>
