<svg viewBox="0 0 807 807" version="1.1" xmlns="http://www.w3.org/2000/svg" xmlns:xlink="http://www.w3.org/1999/xlink" xml:space="preserve" xmlns:serif="http://www.serif.com/" style="fill-rule:evenodd;clip-rule:evenodd;stroke-linejoin:round;stroke-miterlimit:2;">
    <g transform="matrix(1,0,0,1,1316.93,59.8856)">
        <rect id="Artboard2" x="-1316.93" y="-59.886" width="806.322" height="806.322" style="fill:none;"/>
        <g id="Artboard21" serif:id="Artboard2">
            <g transform="matrix(0.267976,0,0,0.267976,-1739.45,-3231.23)">
                <path d="M2503.25,12894.5C2570.94,12460 2753.45,12146.9 3078.72,11981.2C3454.12,12190.9 3596.91,12519.5 3657.67,12890C3596.94,12986.8 3549.12,13096 3516.52,13219.8C3618.23,13266.9 3653.99,13341.3 3660.62,13427.8L3660.62,13738.7C3660.62,13853.5 3862.24,13843.9 3862.24,13738.7L3862.24,13628.3L4064.73,13628.3L4064.73,13736.2C4064.73,14141.8 3451.51,14114.6 3451.51,13736.2L3451.51,13552.4C3451.51,13484.1 3360.18,13493 3360.18,13552.4L3360.18,14395.6C3360.18,14519.7 3551.32,14519.7 3551.32,14395.6L3551.32,14288.1L3762.74,14288.1L3762.74,14403.3C3762.74,14772.8 3146.89,14814 3146.89,14403.3L3146.89,13609.2C3146.89,13518.8 3017.97,13518.8 3017.97,13609.2L3017.97,14414.5C3017.97,14802.9 2399.63,14778.1 2399.63,14414.5L2399.63,14292.5L2609.85,14292.5L2609.85,14408.4C2609.85,14523.4 2803.72,14505.3 2803.72,14408.4L2803.72,13539.9C2803.72,13500.2 2713.1,13500.2 2713.1,13539.9L2713.1,13748.9C2713.1,14111.7 2097.6,14111.7 2097.6,13748.9L2097.6,13625.3L2297.22,13625.3L2297.22,13737.4C2297.22,13850.1 2491.51,13850.1 2491.51,13737.4L2491.51,13394.8C2513.65,13311.8 2563.18,13252.4 2641.64,13217.9C2595.78,13066.6 2549.59,12968.3 2503.25,12894.5Z"/>
            </g>
        </g>
    </g>
</svg>
