<svg viewBox="0 0 68 68" fill="none" xmlns="http://www.w3.org/2000/svg">
<g clip-path="url(#clip0_2244_5290)">
<path fill-rule="evenodd" clip-rule="evenodd" d="M20.9214 23.9371C22.4499 14.1259 26.5711 7.05602 33.9158 3.31445C42.3925 8.04956 45.6167 15.4695 46.9887 23.8355C45.6174 26.0213 44.5376 28.4871 43.8015 31.2825C46.0981 32.346 46.9056 34.026 47.0553 35.9792V42.9995C47.0553 45.5917 51.608 45.3749 51.608 42.9995V40.5066H56.1803V42.943C56.1803 52.1016 42.3335 51.4874 42.3335 42.943V38.7928C42.3335 37.2505 40.2713 37.4515 40.2713 38.7928V57.8325C40.2713 60.6347 44.5873 60.6347 44.5873 57.8325V55.4051H49.3612V58.0064C49.3612 66.3498 35.4551 67.2801 35.4551 58.0064V40.0753C35.4551 38.034 32.544 38.034 32.544 40.0753V58.2593C32.544 67.0295 18.5817 66.4695 18.5817 58.2593V55.5045H23.3285V58.1216C23.3285 60.7183 27.7062 60.3096 27.7062 58.1216V38.5105C27.7062 37.6141 25.6599 37.6141 25.6599 38.5105V43.2298C25.6599 51.422 11.7617 51.422 11.7617 43.2298V40.4388H16.2692V42.9701C16.2692 45.5149 20.6564 45.5149 20.6564 42.9701V35.2341C21.1563 33.3599 22.2747 32.0186 24.0463 31.2396C23.0108 27.8232 21.9678 25.6035 20.9214 23.9371Z" fill="#563EEA"/>
</g>
<defs>
<clipPath id="clip0_2244_5290">
<rect width="68" height="68" fill="white"/>
</clipPath>
</defs>
</svg>
